# xmcd CD database file
#
# Track frame offsets:
#	150
#	17376
#	31532
#	48011
#	70614
#	86844
#	105459
#	120495
#	138462
#	152281
#	168872
#	185412
#	203556
#
# Disc length: 2910 seconds
#
# Revision: 3
# Processed by: cddbd v1.4PL0 Copyright (c) Steve Scherf et al.
# Submitted via: CDex 1.50
#
DISCID=8b0b5c0d
DTITLE=ΧΡΗΣΤΟΣ ΠΑΖΗΣ  - ΔΕ ΧΡΩΣΤΑΩ ΣΕ ΚΑΝΕΝΑ
DYEAR=1900
DGENRE=
TTITLE0=ΧΡΗΣΤΟΣ ΠΑΖΗΣ - Δε Χρωστάω Σε Κανένα
TTITLE1=ΧΡΗΣΤΟΣ ΠΑΖΗΣ - Έχω Στεναχώρια
TTITLE2=ΧΡΗΣΤΟΣ ΠΑΖΗΣ - Πάρε Να Έχεις
TTITLE3=ΧΡΗΣΤΟΣ ΠΑΖΗΣ - Χαλαρά
TTITLE4=ΧΡΗΣΤΟΣ ΠΑΖΗΣ - Κοίτα Τι Έκανες
TTITLE5=ΧΡΗΣΤΟΣ ΠΑΖΗΣ - Φταίω
TTITLE6=ΧΡΗΣΤΟΣ ΠΑΖΗΣ - Καρδιοκλέφτρα
TTITLE7=ΧΡΗΣΤΟΣ ΠΑΖΗΣ - Μη Σταματάς
TTITLE8=ΧΡΗΣΤΟΣ ΠΑΖΗΣ - Χάρισμά Σου
TTITLE9=ΧΡΗΣΤΟΣ ΠΑΖΗΣ - Δε Μετανιώνω
TTITLE10=ΧΡΗΣΤΟΣ ΠΑΖΗΣ - Είσαι Όλα Τα Λεφτά
TTITLE11=ΧΡΗΣΤΟΣ ΠΑΖΗΣ - Χωρίζουμε Απόψε
TTITLE12=ΧΡΗΣΤΟΣ ΠΑΖΗΣ - Κι Άλλοι Χωρίσανε
EXTD=
EXTT0=
EXTT1=
EXTT2=
EXTT3=
EXTT4=
EXTT5=
EXTT6=
EXTT7=
EXTT8=
EXTT9=
EXTT10=
EXTT11=
EXTT12=
PLAYORDER=
